<svg width="100" height="281" viewBox="0 0 100 281" fill="none" xmlns="http://www.w3.org/2000/svg">
<path d="M56 84L56.4195 83.7278L56.4168 83.7238L56 84ZM98.5 149.5L98.9194 149.772L99.096 149.5L98.9194 149.228L98.5 149.5ZM56 215L56.4146 215.28L56.4194 215.272L56 215ZM11.5 281L16.6887 278.468L11.9017 275.24L11.5 281ZM0.583206 1.27619L3.33321 5.42619L4.16679 4.87381L1.41679 0.72381L0.583206 1.27619ZM8.83321 13.7262L14.3332 22.0262L15.1668 21.4738L9.66679 13.1738L8.83321 13.7262ZM19.8332 30.3262L25.3332 38.6262L26.1668 38.0738L20.6668 29.7738L19.8332 30.3262ZM30.8332 46.9262L36.3332 55.2262L37.1668 54.6738L31.6668 46.3738L30.8332 46.9262ZM41.8332 63.5262L47.3332 71.8262L48.1668 71.2738L42.6668 62.9738L41.8332 63.5262ZM52.8332 80.1262L55.5832 84.2762L56.4168 83.7238L53.6668 79.5738L52.8332 80.1262ZM55.5806 84.2722L58.2368 88.3659L59.0757 87.8216L56.4194 83.7278L55.5806 84.2722ZM63.5493 96.5534L68.8618 104.741L69.7007 104.197L64.3882 96.0091L63.5493 96.5534ZM74.1743 112.928L79.4868 121.116L80.3257 120.572L75.0132 112.384L74.1743 112.928ZM84.7993 129.303L90.1118 137.491L90.9507 136.947L85.6382 128.759L84.7993 129.303ZM95.4243 145.678L98.0806 149.772L98.9194 149.228L96.2632 145.134L95.4243 145.678ZM98.0806 149.228L95.4243 153.322L96.2632 153.866L98.9194 149.772L98.0806 149.228ZM90.1118 161.509L84.7993 169.697L85.6382 170.241L90.9507 162.053L90.1118 161.509ZM79.4868 177.884L74.1743 186.072L75.0132 186.616L80.3257 178.428L79.4868 177.884ZM68.8618 194.259L63.5493 202.447L64.3882 202.991L69.7007 194.803L68.8618 194.259ZM58.2368 210.634L55.5806 214.728L56.4194 215.272L59.0757 211.178L58.2368 210.634ZM55.5854 214.72L52.8042 218.845L53.6333 219.405L56.4146 215.28L55.5854 214.72ZM47.2417 227.095L41.6792 235.345L42.5083 235.905L48.0708 227.655L47.2417 227.095ZM36.1167 243.595L30.5542 251.845L31.3833 252.405L36.9458 244.155L36.1167 243.595ZM24.9917 260.095L19.4292 268.345L20.2583 268.905L25.8208 260.655L24.9917 260.095ZM13.8667 276.595L13.6011 276.989L14.4303 277.548L14.6958 277.155L13.8667 276.595ZM56 84L56.8389 83.4557L56.8336 83.4476L56 84ZM98.5 149.5L99.3389 150.044L99.6921 149.5L99.3389 148.956L98.5 149.5ZM56 215L56.8291 215.559L56.8341 215.552L56.8389 215.544L56 215ZM11.5 281L21.8775 275.936L12.3034 269.481L11.5 281ZM0.166405 1.55238L2.9164 5.70238L4.5836 4.59762L1.8336 0.44762L0.166405 1.55238ZM8.4164 14.0024L13.9164 22.3024L15.5836 21.1976L10.0836 12.8976L8.4164 14.0024ZM19.4164 30.6024L24.9164 38.9024L26.5836 37.7976L21.0836 29.4976L19.4164 30.6024ZM30.4164 47.2024L35.9164 55.5024L37.5836 54.3976L32.0836 46.0976L30.4164 47.2024ZM41.4164 63.8024L46.9164 72.1024L48.5836 70.9976L43.0836 62.6976L41.4164 63.8024ZM52.4164 80.4024L55.1664 84.5524L56.8336 83.4476L54.0836 79.2976L52.4164 80.4024ZM55.1611 84.5443L57.8174 88.6381L59.4951 87.5494L56.8389 83.4557L55.1611 84.5443ZM63.1299 96.8256L68.4424 105.013L70.1201 103.924L64.8076 95.7369L63.1299 96.8256ZM73.7549 113.201L79.0674 121.388L80.7451 120.299L75.4326 112.112L73.7549 113.201ZM84.3799 129.576L89.6924 137.763L91.3701 136.674L86.0576 128.487L84.3799 129.576ZM95.0049 145.951L97.6611 150.044L99.3389 148.956L96.6826 144.862L95.0049 145.951ZM97.6611 148.956L95.0049 153.049L96.6826 154.138L99.3389 150.044L97.6611 148.956ZM89.6924 161.237L84.3799 169.424L86.0576 170.513L91.3701 162.326L89.6924 161.237ZM79.0674 177.612L73.7549 185.799L75.4326 186.888L80.7451 178.701L79.0674 177.612ZM68.4424 193.987L63.1299 202.174L64.8076 203.263L70.1201 195.076L68.4424 193.987ZM57.8174 210.362L55.1611 214.456L56.8389 215.544L59.4951 211.451L57.8174 210.362ZM55.1709 214.441L52.3896 218.566L54.0479 219.684L56.8291 215.559L55.1709 214.441ZM46.8271 226.816L41.2646 235.066L42.9229 236.184L48.4854 227.934L46.8271 226.816ZM35.7021 243.316L30.1396 251.566L31.7979 252.684L37.3604 244.434L35.7021 243.316ZM24.5771 259.816L19.0146 268.066L20.6729 269.184L26.2354 260.934L24.5771 259.816Z" fill="black"/>
</svg>
