<?xml version="1.0" encoding="utf-8"?><!-- Uploaded to: SVG Repo, www.svgrepo.com, Generator: SVG Repo Mixer Tools -->
<svg fill="#000000" width="800px" height="800px" viewBox="0 0 24 24" id="menu-food-left-2" data-name="Flat Color" xmlns="http://www.w3.org/2000/svg" class="icon flat-color"><path id="secondary" d="M8,18H18a1,1,0,0,1,.22,2l-8.8,2a1.9,1.9,0,0,1-1.62-.38A2.13,2.13,0,0,1,7,19.88V19A1,1,0,0,1,8,18Zm1.1,2h0Z" style="fill: rgb(44, 169, 188);"></path><path id="primary" d="M7,20H18a1,1,0,0,0,1-1V3a1,1,0,0,0-1-1H7A2,2,0,0,0,5,4V18A2,2,0,0,0,7,20Z" style="fill: rgb(0, 0, 0);"></path><path id="secondary-2" data-name="secondary" d="M8,11a1,1,0,0,1,1-1h6a1,1,0,0,1,0,2H9A1,1,0,0,1,8,11ZM8,7A1,1,0,0,1,9,6h6a1,1,0,0,1,0,2H9A1,1,0,0,1,8,7Z" style="fill: rgb(44, 169, 188);"></path></svg>